<?xml version="1.0" encoding="utf-8"?>
<!-- Generator: Adobe Illustrator 21.0.2, SVG Export Plug-In . SVG Version: 6.00 Build 0)  -->
<svg version="1.1" id="Layer_1" xmlns="http://www.w3.org/2000/svg" xmlns:xlink="http://www.w3.org/1999/xlink" x="0px" y="0px"
	 viewBox="0 0 501 90" style="enable-background:new 0 0 501 90;" xml:space="preserve">
<style type="text/css">
	.st0{fill:#ED1C24;}
	.st1{fill:#29ABE2;}
	.st2{fill:#F7931E;}
	.st3{fill:#662D91;}
	.st4{fill:#FCEE21;}
	.st5{fill:#93278F;}
	.st6{fill:#8CC63F;}
	.st7{fill:#FFFFFF;}
</style>
<g>
	<g id="logo-colourwheel">
		<g>
			<g>
				<path class="st0" d="M45.9,2.7c5.2,0,9.5,4.3,9.5,9.5s-4.3,9.5-9.5,9.5s-9.5-4.3-9.5-9.5C36.4,6.9,40.7,2.7,45.9,2.7z"/>
			</g>
			<g>
				<path class="st1" d="M45.9,66.1c5.2,0,9.5,4.3,9.5,9.5s-4.3,9.5-9.5,9.5s-9.5-4.3-9.5-9.5S40.7,66.1,45.9,66.1z"/>
			</g>
			<g>
				<path class="st2" d="M68.6,12.2c5.2,0,9.5,4.3,9.5,9.5c0,5.3-4.3,9.5-9.5,9.5s-9.5-4.3-9.5-9.5S63.4,12.2,68.6,12.2z"/>
			</g>
			<g>
				<path class="st3" d="M29.9,72.9c-3.8,3.7-9.8,3.6-13.4-0.2c-3.7-3.8-3.6-9.8,0.2-13.4c3.7-3.7,9.8-3.6,13.4,0.1
					C33.7,63.2,33.6,69.2,29.9,72.9z"/>
			</g>
			<g>
				<path class="st4" d="M77.7,34.1c5.2,0,9.5,4.2,9.5,9.5c0,5.2-4.3,9.5-9.5,9.5s-9.5-4.3-9.5-9.5S72.4,34.1,77.7,34.1z"/>
			</g>
			<g>
				<circle class="st5" cx="14.2" cy="44.2" r="9.5"/>
			</g>
			<g>
				<path class="st6" d="M61.7,73.1c-3.7-3.7-3.7-9.7,0-13.4s9.7-3.7,13.4,0s3.7,9.7,0,13.4S65.4,76.8,61.7,73.1z"/>
			</g>
		</g>
	</g>
</g>
<g>
	<path class="st7" d="M139.2,73.6l-11.6-21.1h-8.2v21.1h-9.6v-54h18.2c11.2,0,19.9,4,19.9,16c0,8.3-4.3,13.2-10.8,15.4l12.9,22.5
		H139.2z M119.3,44.9h7.6c7.4,0,11.4-3.1,11.4-9.2c0-6.2-4-8.3-11.4-8.3h-7.6V44.9z"/>
	<path class="st7" d="M173.4,32.1c11,0,16.8,7.9,16.8,19.2c0,1.8-0.2,3.5-0.4,4.5H164c0.8,7.3,5.4,11.5,12,11.5c3.5,0,6.4-1.1,9.4-3
		l3.2,5.9c-3.9,2.6-8.7,4.4-13.9,4.4c-11.2,0-20-7.8-20-21.2C154.8,40.2,163.9,32.1,173.4,32.1z M181.9,49.8
		c0-6.4-2.7-10.3-8.3-10.3c-4.8,0-8.9,3.5-9.7,10.3H181.9z"/>
	<path class="st7" d="M199.7,62.9c3.6,2.8,7.1,4.5,11.2,4.5c4.4,0,6.4-2.1,6.4-4.9c0-3.4-4.4-4.9-8.7-6.5c-5.4-2-11.4-5-11.4-11.8
		c0-7.1,5.7-12.1,14.8-12.1c5.6,0,10.2,2.3,13.5,4.9l-4.4,5.8c-2.8-2.1-5.7-3.5-8.9-3.5c-4,0-5.9,1.9-5.9,4.5c0,3.1,4,4.5,8.4,6
		c5.5,2.1,11.6,4.7,11.6,12.3c0,6.9-5.5,12.5-15.8,12.5c-5.5,0-11.4-2.4-15.4-5.6L199.7,62.9z"/>
	<path class="st7" d="M250.8,32.1c11,0,16.8,7.9,16.8,19.2c0,1.8-0.2,3.5-0.4,4.5h-25.8c0.8,7.3,5.4,11.5,12,11.5
		c3.5,0,6.4-1.1,9.4-3l3.2,5.9c-3.9,2.6-8.7,4.4-13.9,4.4c-11.2,0-20-7.8-20-21.2C232.2,40.2,241.3,32.1,250.8,32.1z M259.3,49.8
		c0-6.4-2.7-10.3-8.3-10.3c-4.8,0-8.9,3.5-9.7,10.3H259.3z"/>
	<path class="st7" d="M297.8,47.7c-0.1-4.3-1.9-7.9-7.3-7.9c-4,0-7.8,1.8-11.4,4l-3.5-6.4c4.5-2.8,10.2-5.3,16.6-5.3
		c10.2,0,15.1,6.2,15.1,17.5v24h-7.8l-0.7-4.5h-0.2c-3.6,3.1-7.8,5.4-12.5,5.4c-7.1,0-12-4.8-12-11.9
		C273.9,54.1,281.2,49.5,297.8,47.7z M289,67.2c3.3,0,5.9-1.7,8.8-4.5v-9.1c-11,1.4-14.6,4.3-14.6,8.3
		C283.2,65.6,285.6,67.2,289,67.2z"/>
	<path class="st7" d="M318.8,33.1h7.8l0.7,7.2h0.3c2.9-5.3,7.2-8.2,11.5-8.2c2.1,0,3.4,0.2,4.6,0.8l-1.7,8.3
		c-1.4-0.4-2.5-0.7-4.2-0.7c-3.2,0-7.1,2.2-9.6,8.3v24.8h-9.5V33.1z"/>
	<path class="st7" d="M366.5,32.1c5.2,0,9.2,2.1,11.9,4.7l-4.5,6c-2.1-1.9-4.3-3-6.9-3c-6.5,0-11.1,5.4-11.1,13.5
		c0,8.1,4.5,13.5,10.8,13.5c3.3,0,6.1-1.7,8.3-3.5l4,6c-3.8,3.4-8.7,5.2-13.3,5.2c-11.1,0-19.6-7.8-19.6-21.2
		C346.2,39.9,355.7,32.1,366.5,32.1z"/>
	<path class="st7" d="M386.9,15.4h9.5v15l-0.3,7.8c3.4-3.2,7.4-6.1,13-6.1c8.7,0,12.5,5.9,12.5,16.1v25.4H412V49.5
		c0-6.7-1.9-9.2-6.4-9.2c-3.5,0-5.9,1.7-9.2,5v28.3h-9.5V15.4z"/>
</g>
</svg>
